<?xml version="1.0" encoding="utf-8"?>
<!-- Generator: Adobe Illustrator 25.4.1, SVG Export Plug-In . SVG Version: 6.00 Build 0)  -->
<svg version="1.2" baseProfile="tiny" id="Layer_1" xmlns="http://www.w3.org/2000/svg" xmlns:xlink="http://www.w3.org/1999/xlink"
	 x="0px" y="0px" viewBox="0 0 479.41 101.65" overflow="visible" xml:space="preserve">
<g>
	<g>
		<path fill="#333333" d="M117.17,50.72c0-6.82,5.22-11.64,11.71-11.64c3.88,0,7.22,1.44,9.23,4.58l-1.91,1.37
			c-1.57-2.47-4.08-3.78-7.32-3.78c-5.32,0-9.2,4.05-9.2,9.47s3.91,9.47,9.23,9.47c5.15,0,8.03-3.11,8.56-6.66h-8.13v-2.14h10.74
			c-0.1,6.59-4.31,10.97-11.17,10.97C122.36,62.36,117.17,57.54,117.17,50.72z"/>
		<path fill="#333333" d="M144.43,55.17c0-4.05,3.21-7.22,7.36-7.22c4.11,0,7.29,3.18,7.29,7.22s-3.18,7.19-7.29,7.19
			C147.64,62.36,144.43,59.22,144.43,55.17z M156.7,55.17c0-2.98-1.97-5.18-4.92-5.18c-2.98,0-4.98,2.21-4.98,5.18
			s2.01,5.18,4.98,5.18C154.73,60.35,156.7,58.15,156.7,55.17z"/>
		<path fill="#333333" d="M164.7,56.74v-8.5h2.34v8.26c0,2.41,1.14,3.75,3.41,3.75c2.61,0,4.31-1.67,4.31-4.38v-7.63h2.34v13.85
			h-2.34l0.07-2.81c-0.9,1.94-2.71,3.11-4.95,3.11C166.8,62.39,164.7,60.29,164.7,56.74z"/>
		<path fill="#333333" d="M184.53,57.91v-7.69h-2.14v-1.97h2.14v-7.22h2.31v7.22h3.88v1.97h-3.88v7.73c0,1.84,0.64,2.41,1.64,2.41
			c0.94,0,1.44-0.4,1.87-0.8l1.27,1.47c-0.6,0.64-1.67,1.37-3.38,1.37C186.13,62.39,184.53,61.19,184.53,57.91z"/>
		<path fill="#333333" d="M206.87,39.35h13.85v2.14h-11.44v10.67h10.2v2.11h-10.2v5.69h11.91v2.14h-14.32V39.35z"/>
		<path fill="#333333" d="M225.77,55.14c0-4.11,2.94-7.19,6.69-7.19c2.64,0,4.31,1.3,5.32,3.14V37.95h2.31v24.15h-2.31l0.07-2.98
			c-0.94,1.91-2.88,3.24-5.35,3.24C228.71,62.36,225.77,59.28,225.77,55.14z M237.87,55.14c0-2.98-1.97-5.12-4.92-5.12
			c-2.91,0-4.78,2.14-4.78,5.12c0,3.01,1.87,5.18,4.78,5.18C235.9,60.32,237.87,58.15,237.87,55.14z"/>
		<path fill="#333333" d="M246.6,56.74v-8.5h2.34v8.26c0,2.41,1.14,3.75,3.41,3.75c2.61,0,4.32-1.67,4.32-4.38v-7.63h2.34v13.85
			h-2.34l0.07-2.81c-0.9,1.94-2.71,3.11-4.95,3.11C248.71,62.39,246.6,60.29,246.6,56.74z"/>
		<path fill="#333333" d="M264.76,55.17c0-4.05,3.11-7.22,7.19-7.22c2.47,0,4.18,0.94,5.45,2.48l-1.67,1.37
			c-0.84-1.1-2.04-1.77-3.78-1.77c-2.94,0-4.78,2.21-4.78,5.15s1.84,5.15,4.78,5.15c1.91,0,3.11-0.77,3.98-1.81l1.61,1.37
			c-1.3,1.57-3.01,2.47-5.59,2.47C267.87,62.36,264.76,59.22,264.76,55.17z"/>
		<path fill="#333333" d="M291.52,53.63c0-2.68-1.2-3.71-3.24-3.71c-1.94,0-3.18,0.84-4.05,2.01l-1.44-1.3
			c1.21-1.64,3.01-2.68,5.65-2.68c3.08,0,5.42,1.81,5.42,5.65v8.5h-2.34l0.1-2.07c-0.94,1.41-2.37,2.34-4.58,2.34
			c-2.94,0-5.08-1.34-5.08-4.21c0-2.84,2.34-4.18,5.25-4.18h4.31V53.63z M287.37,55.74c-1.77,0-3.14,0.64-3.14,2.31
			c0,1.57,1.17,2.41,3.34,2.41c2.14,0,3.95-1.17,3.95-2.98v-1.74H287.37z"/>
		<path fill="#333333" d="M300.98,57.91v-7.69h-2.14v-1.97h2.14v-7.22h2.31v7.22h3.88v1.97h-3.88v7.73c0,1.84,0.64,2.41,1.64,2.41
			c0.94,0,1.44-0.4,1.87-0.8l1.27,1.47c-0.6,0.64-1.67,1.37-3.38,1.37C302.59,62.39,300.98,61.19,300.98,57.91z"/>
		<path fill="#333333" d="M312.66,42.59c0-0.97,0.8-1.67,1.67-1.67c0.87,0,1.67,0.7,1.67,1.67c0,0.97-0.8,1.64-1.67,1.64
			C313.46,44.23,312.66,43.56,312.66,42.59z M313.16,48.25h2.34v13.85h-2.34V48.25z"/>
		<path fill="#333333" d="M321.32,55.17c0-4.05,3.21-7.22,7.36-7.22c4.11,0,7.29,3.18,7.29,7.22s-3.18,7.19-7.29,7.19
			C324.53,62.36,321.32,59.22,321.32,55.17z M333.59,55.17c0-2.98-1.97-5.18-4.92-5.18c-2.98,0-4.98,2.21-4.98,5.18
			s2.01,5.18,4.98,5.18C331.62,60.35,333.59,58.15,333.59,55.17z"/>
		<path fill="#333333" d="M341.72,48.25h2.34l-0.07,2.84c0.9-1.97,2.74-3.14,4.98-3.14c3.08,0,5.18,2.11,5.18,5.72v8.43h-2.34v-8.16
			c0-2.44-1.14-3.85-3.45-3.85c-2.58,0-4.31,1.64-4.31,4.38v7.63h-2.34V48.25z"/>
		<path fill="#333333" d="M368.74,57.75l2.01-1.07c1.07,1.91,2.64,3.54,5.85,3.54c2.64,0,4.72-1.47,4.72-3.88
			c0-2.31-1.44-3.48-4.28-4.75l-1.81-0.84c-3.24-1.47-5.02-3.04-5.02-6.22c0-3.28,2.58-5.45,5.99-5.45c3.04,0,4.95,1.4,6.15,3.41
			l-1.94,1.2c-0.87-1.4-2.07-2.47-4.21-2.47c-2.24,0-3.61,1.3-3.61,3.24c0,2.01,1.07,2.91,3.61,4.08l1.81,0.84
			c3.78,1.67,5.72,3.55,5.72,6.96c0,3.75-2.98,6.02-7.06,6.02C372.32,62.36,369.94,60.15,368.74,57.75z"/>
		<path fill="#333333" d="M388.81,55.17c0-4.05,3.21-7.22,7.36-7.22c4.11,0,7.29,3.18,7.29,7.22s-3.18,7.19-7.29,7.19
			C392.02,62.36,388.81,59.22,388.81,55.17z M401.08,55.17c0-2.98-1.97-5.18-4.92-5.18c-2.98,0-4.98,2.21-4.98,5.18
			s2.01,5.18,4.98,5.18C399.11,60.35,401.08,58.15,401.08,55.17z"/>
		<path fill="#333333" d="M408.34,55.17c0-4.05,3.11-7.22,7.19-7.22c2.47,0,4.18,0.94,5.45,2.48l-1.67,1.37
			c-0.84-1.1-2.04-1.77-3.78-1.77c-2.94,0-4.78,2.21-4.78,5.15s1.84,5.15,4.78,5.15c1.91,0,3.11-0.77,3.98-1.81l1.61,1.37
			c-1.3,1.57-3.01,2.47-5.59,2.47C411.45,62.36,408.34,59.22,408.34,55.17z"/>
		<path fill="#333333" d="M426.06,42.59c0-0.97,0.8-1.67,1.67-1.67c0.87,0,1.67,0.7,1.67,1.67c0,0.97-0.8,1.64-1.67,1.64
			C426.87,44.23,426.06,43.56,426.06,42.59z M426.57,48.25h2.34v13.85h-2.34V48.25z"/>
		<path fill="#333333" d="M442.22,60.39c2.07,0,3.48-0.84,4.38-1.84l1.44,1.4c-1.27,1.44-3.11,2.41-5.82,2.41
			c-4.55,0-7.49-3.14-7.49-7.19s3.11-7.22,7.16-7.22c4.45,0,7.12,3.41,6.96,7.99h-11.77C437.37,58.58,439.17,60.39,442.22,60.39z
			 M446.5,54.17c-0.2-2.38-1.71-4.25-4.62-4.25c-2.64,0-4.42,1.71-4.78,4.25H446.5z"/>
		<path fill="#333333" d="M455.16,57.91v-7.69h-2.14v-1.97h2.14v-7.22h2.31v7.22h3.88v1.97h-3.88v7.73c0,1.84,0.64,2.41,1.64,2.41
			c0.94,0,1.44-0.4,1.87-0.8l1.27,1.47c-0.6,0.64-1.67,1.37-3.38,1.37C456.77,62.39,455.16,61.19,455.16,57.91z"/>
		<path fill="#333333" d="M471.51,60.92l-5.89-12.68h2.58l3.91,8.6c0.37,0.87,0.64,2.34,0.64,2.34s0.23-1.47,0.63-2.34l3.61-8.6
			h2.41l-9.03,20.94h-2.41L471.51,60.92z"/>
	</g>
	<g>
		<path fill="#1A4996" d="M23.62,35.06l7.66,7.66H20.44c-0.44,1.65-0.75,3.36-0.92,5.11h16.87h7.25l-0.01-0.01l0.03,0.01l-5.12-5.12
			L26.22,30.39L12.8,16.97c-1.14,1.28-2.21,2.62-3.22,4.01l14.05,14.05C23.63,35.04,23.63,35.05,23.62,35.06z"/>
		<g>
			<path fill="#FDBB16" d="M81.21,42.71H70.48l7.59-7.59c-0.87-1.51-1.85-2.94-2.95-4.27L63.25,42.71h-0.02l-5.11,5.11h7.25h0.03
				l-0.02,0.01h7.25h17.42h11.61c-0.1-1.73-0.29-3.43-0.55-5.11L81.21,42.71C81.21,42.72,81.21,42.72,81.21,42.71z"/>
			<path fill="#FDBB16" d="M59,38.46l0.02-0.02l-0.01,0.03l5.12-5.12l12.32-12.32l8.23-8.23c-1.28-1.14-2.62-2.21-4.01-3.22
				L66.61,23.64c0,0-0.01-0.01-0.01-0.01l-7.6,7.6V20.46c-1.65-0.44-3.36-0.76-5.11-0.93v16.81v7.25L59,38.48V38.46z"/>
			<path fill="#FDBB16" d="M20.44,58.95h10.84l-7.66,7.66c0.87,1.5,1.86,2.93,2.96,4.26l11.92-11.92h0.02l5.03-5.03l0.21-0.09h-7.25
				H19.11H0c0.1,1.73,0.29,3.43,0.55,5.11L20.44,58.95C20.44,58.94,20.44,58.95,20.44,58.95z"/>
			<path fill="#FDBB16" d="M42.76,63.2L30.85,75.12c0,0,0.01,0,0.01,0.01l-5.51,5.51l-8.3,8.3c1.28,1.14,2.62,2.21,4.01,3.21
				l16.6-16.6l0.01-0.03l5.09-5.09v10.8c1.65,0.44,3.36,0.74,5.11,0.91V65.32v-7.25l-5.11,5.11V63.2z"/>
		</g>
		<path fill="#1A4996" d="M59,63.18l-5.11-5.11v7.25v16.81c0,0,0.01,0,0.01,0v7.86v11.66c1.73-0.1,3.43-0.29,5.11-0.56v-23.4
			L59,77.66v-7.23l7.6,7.6c1.5-0.87,2.93-1.86,4.26-2.96L59,63.2V63.18z"/>
		<path fill="#1A4996" d="M42.79,20.42C42.78,20.42,42.78,20.42,42.79,20.42l-0.01,10.81l-7.65-7.65c-1.51,0.87-2.94,1.85-4.27,2.95
			l11.92,11.92v0.02l5.11,5.11v-0.03l0.01,0.02v-7.25V18.92V0c-1.73,0.1-3.43,0.28-5.11,0.55V20.42z"/>
		<path fill="#1A4996" d="M75.58,64.05l-5.1-5.1h10.73c0.44-1.65,0.75-3.36,0.92-5.11H65.37h-7.25l5.11,5.11h0.02l11.86,11.86
			c0,0,0-0.01,0.01-0.01l5.58,5.58l8.22,8.22c1.14-1.28,2.21-2.62,3.21-4.01L75.61,64.06L75.58,64.05z"/>
	</g>
</g>
</svg>
