<svg width="981" height="170" viewBox="0 0 981 170" fill="none" xmlns="http://www.w3.org/2000/svg">
<g clip-path="url(#clip0_28_52)">
<path d="M315.587 17.5207H321.89L336.829 53.8769H330.721L326.43 42.9842H310.263L305.793 53.8769H300.078L315.587 17.5207ZM324.845 38.9683L318.507 22.9759L311.919 38.9683H324.845Z" fill="#025584"/>
<path d="M356.219 17.5207H361.792V49.5056H382.464V53.8413H356.219V17.5207Z" fill="#025584"/>
<path d="M402.496 17.5207H408.087V49.5056H428.741V53.8413H402.496V17.5207Z" fill="#025584"/>
<path d="M450.037 17.5207H455.663V53.8769H450.019L450.037 17.5207Z" fill="#025584"/>
<path d="M491.114 17.5207H497.4L512.356 53.8769H506.231L501.958 42.9842H485.808L481.339 53.8769H475.606L491.114 17.5207ZM500.355 38.9683L494.017 22.9759L487.428 38.9683H500.355Z" fill="#025584"/>
<path d="M531.729 17.5207H538.299L558.936 46.8935V17.5207H564.278V53.8769H558.01L537.053 24.5396V53.8769H531.711L531.729 17.5207Z" fill="#025584"/>
<path d="M616.679 20.1683C619.294 22.1869 620.997 25.159 621.416 28.4311H616.074C615.561 26.2245 614.304 24.261 612.513 22.8692C610.272 21.3715 607.602 20.6475 604.91 20.808C603.126 20.7323 601.345 21.0299 599.683 21.6817C598.021 22.3335 596.514 23.3252 595.259 24.5929C592.802 27.1161 591.573 30.9721 591.573 36.1608C591.401 39.9064 592.582 43.5893 594.903 46.5381C596.141 47.9081 597.677 48.9773 599.393 49.6641C601.109 50.3509 602.959 50.637 604.803 50.5007C606.565 50.6048 608.325 50.2789 609.932 49.5513C611.539 48.8237 612.945 47.7163 614.026 46.3249C615.266 44.5958 616.116 42.6197 616.519 40.532H621.968C621.565 44.2036 619.875 47.615 617.196 50.1631C615.435 51.7658 613.374 53.0041 611.13 53.8063C608.887 54.6084 606.506 54.9586 604.126 54.8364C599.824 54.9769 595.607 53.62 592.197 50.9982C587.828 47.622 585.644 42.3978 585.644 35.3256C585.454 30.4729 587.166 25.7372 590.416 22.1229C592.25 20.227 594.471 18.7474 596.929 17.7846C599.387 16.8218 602.024 16.3985 604.661 16.5433C608.973 16.273 613.239 17.5596 616.679 20.1683Z" fill="#025584"/>
<path d="M643.886 17.5207H673.782V21.9808H649.335V33.0156H671.93V37.2092H649.335V49.5411H674.263V53.8769H643.993L643.886 17.5207Z" fill="#025584"/>
<path d="M726.843 17.5207H755.421V21.9808H732.434V33.0156H752.643V37.3513H732.434V53.8769H726.843V17.5207Z" fill="#025584"/>
<path d="M809.657 22.7271C812.475 26.2061 813.931 30.5888 813.752 35.0591C813.926 39.9956 812.257 44.8207 809.069 48.5994C805.401 52.8285 800.178 54.9371 793.4 54.9253C787.061 54.9253 782.076 53.1483 778.461 49.399C775.164 45.68 773.424 40.8392 773.6 35.8765C773.486 31.3198 774.952 26.8635 777.749 23.2602C781.31 18.7823 786.563 16.5433 793.507 16.5433C800.772 16.5433 806.155 18.6046 809.657 22.7271ZM804.742 45.8273C806.932 42.7054 808.084 38.9761 808.036 35.1657C808.12 33.2785 807.827 31.3935 807.172 29.6209C806.518 27.8482 805.517 26.2235 804.226 24.8417C802.863 23.506 801.236 22.4685 799.448 21.7954C797.661 21.1223 795.753 20.8284 793.845 20.9324C791.936 20.8579 790.031 21.1619 788.24 21.8268C786.449 22.4917 784.808 23.5044 783.411 24.8061C780.723 27.3827 779.387 31.2031 779.387 36.2319C779.269 39.9362 780.495 43.5584 782.841 46.4315C785.215 49.1798 788.961 50.5599 794.077 50.5718C798.991 50.554 802.534 48.9192 804.742 45.8806V45.8273Z" fill="#025584"/>
<path d="M835.421 17.5207H854.135C856.729 17.4417 859.314 17.8516 861.756 18.729C863.514 19.3481 865.022 20.523 866.05 22.0753C867.079 23.6275 867.571 25.4723 867.454 27.3294C867.531 29.2219 867.001 31.0897 865.94 32.6602C864.814 34.1238 863.331 35.2741 861.631 36.0008C862.99 36.4501 864.214 37.2321 865.192 38.2753C866.135 39.6148 866.616 41.2238 866.563 42.8598L866.759 47.7287C866.763 48.7714 866.894 49.8098 867.151 50.8205C867.247 51.3086 867.458 51.7667 867.768 52.1563C868.078 52.5459 868.477 52.8556 868.931 53.0595V53.8769H862.076C861.868 53.4923 861.718 53.0791 861.631 52.6508C861.478 51.7039 861.382 50.7485 861.346 49.7899L861.026 43.7305C861.066 42.7351 860.81 41.75 860.291 40.8994C859.771 40.0488 859.011 39.3707 858.106 38.9506C856.537 38.421 854.881 38.1919 853.227 38.2753H840.888V53.8769H835.314L835.421 17.5207ZM853.53 34.1706C855.637 34.276 857.733 33.7962 859.583 32.7846C860.368 32.2281 860.988 31.4703 861.376 30.5913C861.765 29.7124 861.908 28.745 861.791 27.7914C861.892 26.6921 861.647 25.5888 861.092 24.6339C860.537 23.679 859.699 22.9196 858.693 22.4606C857.277 21.908 855.761 21.6539 854.242 21.7142H840.994V34.1528L853.53 34.1706Z" fill="#025584"/>
<path d="M102.614 129.912C91.9304 131.049 90.3279 135.243 90.3279 144.128V160.955C81.0333 166.286 65.5959 169.947 50.746 169.947C22.0255 169.947 0 150.543 0 120.015C0 91.5836 21.1531 68.6788 49.7489 68.6788C57.4094 68.8218 64.9549 70.5651 71.899 73.7964C73.9421 74.8715 76.1722 75.547 78.4693 75.7866C81.1758 75.7866 82.618 74.365 84.7547 69.2297H88.6185V102.672H85.0574C80.054 91.8323 77.49 86.8391 71.3471 81.3484C65.9675 76.3723 58.9348 73.556 51.6007 73.441C35.0236 73.441 25.3018 89.5579 25.3018 119.073C25.3018 133.768 27.4384 145.034 32.1569 152.835C37.1603 161.115 43.3032 165.273 54.3071 165.273C64.4563 165.273 68.0352 160.422 68.0352 153.137V140.449C68.0352 133.04 65.7383 130.605 53.4524 129.894V126.341H102.614V129.912Z" fill="#025584"/>
<path d="M141.644 169.289C123.838 169.289 109.487 155.074 109.487 134.763C109.487 113.937 123.357 99.8286 142.213 99.8286C160.215 99.8286 173.943 114.364 173.943 134.621C173.943 154.878 160.09 169.289 141.644 169.289ZM141.786 104.253C133.061 104.253 130.497 111.805 130.497 136.238C130.497 156.922 133.489 164.918 141.786 164.918C150.083 164.918 152.932 157.49 152.932 136.238C152.968 111.805 150.208 104.253 141.786 104.253Z" fill="#025584"/>
<path d="M245.254 165.433C235.978 166.428 232.541 166.997 226.398 169.129V159.871C218.956 166.855 213.525 169.289 205.673 169.289C193.814 169.289 186.656 161.862 186.656 148.606V114.222C186.656 107.665 185.517 106.101 179.659 104.964V101.534H206.527V149.174C206.527 157.153 209.394 160.014 214.54 160.014C218.671 160.014 221.822 158.237 226.256 153.314V113.937C226.256 107.523 224.671 105.533 217.531 105.053V101.534H246.109V152.302C246.109 158.592 247.979 160.867 254.264 161.186V164.42L245.254 165.433Z" fill="#025584"/>
<path d="M304.316 152.87C298.458 164.58 292.742 168.987 283.163 168.987C273.316 168.987 267.138 163.283 267.138 153.741V107.807H259.552V104.004C269.844 97.0032 275.132 89.4512 283.43 77.4746H286.991V101.534H300.576V107.807H286.991V150.311C286.991 156.015 288.575 158.876 292.564 158.876C295.573 158.876 297.906 156.726 300.719 151.307L304.316 152.87Z" fill="#025584"/>
<path d="M392.614 167.281V163.727L397.19 163.301C401.908 162.874 403.76 161.737 403.76 158.61C403.76 155.482 401.979 150.471 397.19 139.206H365.033L363.252 144.057C361.472 148.481 358.836 154.47 358.836 157.881C358.836 161.595 361.97 163.212 370.41 163.727V167.281H341.458V163.727C348.028 162.59 350.165 160.031 355.596 146.615L387.183 68.892H391.189L422.901 143.346C430.201 160.6 432.765 163.727 438.623 163.727V167.281H392.614ZM380.613 98.9756L367.169 133.626H395.124L380.613 98.9756Z" fill="#025584"/>
<path d="M534.809 104.964C531.106 105.675 529.468 107.238 527.687 112.072L505.519 169.289H502.225L487.713 125.061L469.908 169.289H466.347L445.194 115.981C441.633 107.096 440.76 105.71 437.039 104.999V101.534H468.768V104.964C464.762 105.533 463.338 106.528 463.338 108.944C463.338 110.721 465.118 115.235 468.911 125.345L475.339 142.191L485.06 117.793C484.776 116.941 484.491 116.016 484.206 115.092C481.499 105.675 481.339 105.533 475.766 104.964V101.534H509.223V104.964C503.881 105.39 502.35 106.101 502.35 108.376C502.35 109.815 503.347 113.795 506.213 123.497C509.08 133.484 509.65 135.616 511.074 141.604L516.078 128.206C520.226 117.083 522.363 111.805 522.363 109.957C522.363 106.67 520.796 105.533 515.508 104.964V101.534H534.791L534.809 104.964Z" fill="#025584"/>
<path d="M603.699 161.151C598.268 166.997 593.853 169.289 587.674 169.289C580.677 169.289 577.543 166.713 575.958 159.445C568.106 166.553 561.535 169.289 553.238 169.289C544.086 169.289 537.516 164.722 537.516 154.167C537.516 147.895 540.667 142.475 547.095 138.175C552.526 134.621 559.239 132.045 575.816 127.336V117.634C575.816 108.5 572.682 104.378 564.242 104.378C559.096 104.378 554.947 106.154 554.947 109.708C554.982 110.331 555.141 110.94 555.412 111.501C555.684 112.062 556.065 112.564 556.532 112.978C558.128 114.583 559.089 116.71 559.239 118.966C559.239 123.817 555.232 127.531 549.517 127.531C543.801 127.531 540.24 123.817 540.24 117.829C540.24 106.421 551.386 99.8641 567.536 99.8641C584.968 99.8641 595.544 106.705 595.544 118.966V156.193C595.544 158.628 596.541 160.191 598.535 160.191C598.825 160.22 599.118 160.184 599.392 160.086C599.666 159.987 599.915 159.829 600.12 159.623L601.545 158.183L603.699 161.151ZM575.833 132.435C564.402 135.563 558.402 141.32 558.402 149.69C558.402 155.962 561.553 159.249 565.827 159.249C569.263 159.249 572.7 157.952 575.833 153.546V132.435Z" fill="#025584"/>
<path d="M636.586 113.227C643.299 103.525 648.73 99.8286 655.87 99.8286C657.385 99.7549 658.899 99.9937 660.318 100.53C661.736 101.066 663.029 101.889 664.115 102.946C665.201 104.003 666.057 105.272 666.63 106.674C667.202 108.076 667.479 109.581 667.443 111.094C667.443 116.798 663.74 120.796 658.451 120.796C654.73 120.796 652.291 119.357 649.869 115.466C648.302 112.889 647.02 112.178 645.863 112.178C640.859 112.178 637.156 118.593 637.156 127.016V152.248C637.156 161.382 638.723 163.372 647.448 163.941V167.37H609.575V163.941C615.86 162.803 617.285 161.24 617.285 155.394V114.08C617.285 107.381 615.504 105.817 609.433 104.964V101.534H636.586V113.227Z" fill="#025584"/>
<path d="M728.481 151.307C719.899 164.865 712.331 169.289 700.188 169.289C682.881 169.289 671.022 154.878 671.022 135.332C671.022 114.009 683.023 99.793 700.9 99.793C709.18 99.793 715.038 102.352 719.186 106.901C724.528 112.747 727.039 121.738 727.626 132.293H691.605C692.46 145.834 694.615 158.947 708.61 158.947C714.753 158.947 719.186 156.229 725.044 149.245L728.481 151.307ZM710.034 124.066C710.034 116.656 710.034 113.653 708.752 110.952C706.758 106.67 705.031 104.253 700.9 104.253C694.312 104.253 690.893 109.957 690.893 127.069H710.034V124.066Z" fill="#025584"/>
<path d="M774.491 167.281V163.852C779.352 163.283 781.061 161.009 781.061 155.305V121.543C781.061 113.547 778.639 109.424 773.778 109.424C771.864 109.519 769.988 109.992 768.258 110.816C766.528 111.639 764.979 112.797 763.7 114.222C762.615 115.141 761.781 116.322 761.279 117.651V155.305C761.279 160.636 762.846 163.141 768.134 163.852V167.281H733.912V163.852C740.339 162.572 741.479 160.867 741.479 154.878V113.653C741.479 107.523 740.197 105.959 733.912 104.964V101.534H761.208V112.196H761.35C766.211 103.631 773.066 99.7575 781.648 99.7575C793.365 99.7575 800.932 107.594 800.932 119.997V155.234C800.932 161.648 802.356 163.354 807.93 163.781V167.21L774.491 167.281Z" fill="#025584"/>
<path d="M871.389 151.307C862.824 164.865 855.239 169.289 843.096 169.289C825.806 169.289 813.948 154.878 813.948 135.332C813.948 114.009 825.949 99.793 843.808 99.793C852.105 99.793 858.052 102.352 862.112 106.901C867.454 112.747 869.964 121.738 870.534 132.293H834.531C835.386 145.834 837.522 158.947 851.535 158.947C857.678 158.947 862.112 156.229 867.97 149.245L871.389 151.307ZM852.96 124.066C852.96 116.656 852.96 113.653 851.678 110.952C849.666 106.67 847.956 104.253 843.808 104.253C837.237 104.253 833.801 109.957 833.801 127.069H852.96V124.066Z" fill="#025584"/>
<path d="M918.841 120.796C916.704 114.666 915.137 111.912 912.128 109.086C909.294 106.243 905.462 104.612 901.445 104.537C896.014 104.537 892.008 108.091 892.008 112.8C892.008 117.509 896.014 121.365 905.736 125.345C919.98 131.352 925.464 137.482 925.464 147.611C925.464 160.44 916.455 169.289 903.439 169.289C898.159 169.002 892.956 167.893 888.019 166.002C886.977 165.535 885.863 165.247 884.725 165.149C883.443 165.149 882.588 166.144 881.004 169.129H877.443V145.603H881.431C884.44 158.041 891.01 164.438 901.017 164.438C907.445 164.438 911.701 160.724 911.701 155.163C911.701 150.596 907.837 147.024 897.972 142.724C883.55 136.593 877.692 130.019 877.692 120.619C877.692 108.624 887.111 99.793 900.127 99.793C903.938 99.8574 907.709 100.579 911.273 101.925C912.7 102.455 914.191 102.789 915.707 102.92C917.487 102.92 918.413 102.21 919.268 100.077H922.42V120.761L918.841 120.796Z" fill="#025584"/>
<path d="M974.447 120.796C972.293 114.666 970.726 111.912 967.717 109.086C964.885 106.24 961.052 104.608 957.034 104.537C951.692 104.537 947.614 108.091 947.614 112.8C947.614 117.509 951.603 121.365 961.325 125.345C975.569 131.352 981.053 137.482 981.053 147.611C981.053 160.44 972.044 169.289 959.046 169.289C953.76 169.002 948.551 167.893 943.608 166.002C942.567 165.532 941.453 165.243 940.314 165.149C939.032 165.149 938.177 166.144 936.61 169.129H933.049V145.603H937.056C940.047 158.041 946.635 164.438 956.642 164.438C963.087 164.438 967.325 160.724 967.325 155.163C967.325 150.596 963.479 147.024 953.615 142.724C939.174 136.593 933.316 130.019 933.316 120.619C933.316 108.624 942.753 99.793 955.751 99.793C959.562 99.856 963.334 100.577 966.898 101.925C968.325 102.453 969.816 102.788 971.331 102.92C973.112 102.92 974.056 102.21 974.892 100.077H978.026V120.761L974.447 120.796Z" fill="#025584"/>
<path d="M249.011 24.4329C231.117 25.9967 227.289 16.2946 223.407 12.4564C219.741 8.50476 215.314 5.33181 210.391 3.12742C204.439 0.482533 197.886 -0.521855 191.413 0.218807C184.94 0.959469 178.784 3.4181 173.587 7.33877C169.369 10.7456 165.956 15.0395 163.592 19.9141C161.229 24.7886 159.972 30.1238 159.912 35.5388C163.774 37.3355 167.418 39.5651 170.774 42.1846C169.988 37.3432 170.487 32.3808 172.221 27.7916C173.955 23.2025 176.863 19.1467 180.656 16.028C189.843 8.6004 207.916 8.77809 216.89 19.8129C216.89 19.8129 226.167 30.9366 232.417 32.3759C238.155 33.8555 244.137 34.1398 249.991 33.211L287.044 27.4182C289.062 23.9828 291.104 20.5829 293.169 17.2186L249.011 24.4329Z" fill="#FFCB24"/>
<path d="M237.901 50.1275L234.589 60.1495L277.002 53.6814C278.782 50.3585 280.456 47.0356 281.987 43.6595L237.901 50.1275Z" fill="#FFCB24"/>
<path d="M218.226 38.0266C219.623 43.216 219.493 48.6974 217.851 53.815C216.209 58.9326 213.125 63.4699 208.967 66.8841C199.779 74.3117 181.688 74.134 172.732 63.117C172.732 63.117 163.455 51.9755 157.188 50.5362C151.457 49.0468 145.478 48.7624 139.632 49.7011L101.492 55.2629C99.7114 58.6746 97.9309 62.0153 96.0435 65.3204L140.557 58.4969C158.363 56.9154 162.28 66.6353 166.144 70.4557C169.813 74.4037 174.239 77.5761 179.16 79.7847C185.119 82.438 191.683 83.4468 198.166 82.7061C204.649 81.9653 210.814 79.5021 216.018 75.5733C220.591 71.8829 224.212 67.1536 226.578 61.7807C228.945 56.4079 229.988 50.5477 229.621 44.6901C225.655 42.7684 221.844 40.5404 218.226 38.0266Z" fill="#025584"/>
<path d="M156.28 22.5849L140.736 25.197C138.261 28.5732 135.839 32.0383 133.613 35.5921L152.968 32.6069L156.28 22.5849Z" fill="#025584"/>
</g>
<defs>
<clipPath id="clip0_28_52">
<rect width="981" height="170" fill="white"/>
</clipPath>
</defs>
</svg>
