<?xml version="1.0" encoding="UTF-8"?>
<svg id="Layer_1" xmlns="http://www.w3.org/2000/svg" width="371.7" height="65" version="1.1" viewBox="0 0 371.7 65">
  <!-- Generator: Adobe Illustrator 29.1.0, SVG Export Plug-In . SVG Version: 2.1.0 Build 142)  -->
  <defs>
    <style>
      .st0, .st1 {
        fill-rule: evenodd;
      }

      .st0, .st2 {
        fill: #f16024;
      }
    </style>
  </defs>
  <g>
    <g>
      <path class="st2" d="M355.9,26.6h5.3c-3-5-8.4-8.3-14.6-8.3h-8.6l1.7-4.2h18.2v-4.2h-21.1l-5,12.7h14.8c3.7,0,7,1.6,9.3,4Z"/>
      <path class="st2" d="M358.1,40.8c-2.1,4.3-6.5,7.4-11.6,7.4s-12.8-5.8-12.8-12.8.4-3.9,1.3-5.7l1.3-3.1h-25.7v4.2h17.9l-10.9,27.2h4.6l7.7-19.2c1.6,7.8,8.5,13.6,16.7,13.6s13.9-4.9,16.2-11.6h-4.6Z"/>
    </g>
    <g>
      <path class="st2" d="M341.8,34.4l-3-4.6h1.8l2,3.2,2-3.2h1.7l-3,4.6v3.4h-1.4v-3.4Z"/>
      <path class="st2" d="M346.4,29.9h5.3v1.3h-3.9v2h3.7v1.3h-3.7v2.2h4.1v1.3h-5.5v-8Z"/>
      <path class="st2" d="M355.4,29.9h1.2l3.4,8h-1.6l-.7-1.8h-3.5l-.7,1.8h-1.6l3.5-8ZM357.2,34.8l-1.2-3.2-1.2,3.2h2.5Z"/>
      <path class="st2" d="M360.2,29.9h2.8c.4,0,.8,0,1.1.1.4,0,.7.2,1,.4.3.2.5.4.7.7s.2.7.2,1.1-.2,1.1-.5,1.5c-.3.4-.8.6-1.4.7l2.1,3.5h-1.7l-1.8-3.4h-1v3.4h-1.4v-8ZM362.7,33.2c.2,0,.4,0,.6,0,.2,0,.4,0,.6-.1s.3-.2.4-.3c.1-.1.2-.4.2-.6s0-.4-.1-.6c0-.1-.2-.2-.4-.3-.2,0-.3-.1-.5-.1s-.4,0-.6,0h-1.2v2.2h1.1Z"/>
      <path class="st2" d="M370.6,31.6c-.2-.2-.4-.4-.6-.5-.3-.1-.5-.2-.8-.2s-.3,0-.5,0c-.2,0-.3,0-.4.2-.1,0-.2.2-.3.3s-.1.3-.1.5c0,.3,0,.5.3.6.2.1.4.3.7.4s.6.2.9.3c.3,0,.6.2.9.4.3.2.5.4.7.7.2.3.3.7.3,1.1s0,.8-.2,1.1c-.2.3-.4.6-.6.8-.3.2-.6.4-.9.5-.4.1-.7.2-1.1.2s-1,0-1.4-.2c-.5-.2-.9-.4-1.2-.8l1.1-1c.2.3.4.5.7.6.3.1.6.2.9.2s.3,0,.5,0c.2,0,.3-.1.5-.2.1,0,.2-.2.3-.3,0-.1.1-.3.1-.5,0-.3,0-.5-.3-.7-.2-.2-.4-.3-.7-.4s-.6-.2-.9-.3c-.3,0-.6-.2-.9-.4s-.5-.4-.7-.7c-.2-.3-.3-.7-.3-1.1s0-.8.3-1.1c.2-.3.4-.5.7-.7.3-.2.6-.3.9-.4.4,0,.7-.1,1.1-.1s.8,0,1.2.2.7.3,1.1.6l-1,1.1Z"/>
    </g>
  </g>
  <g>
    <path class="st2" d="M65,42.4c0-7.7-4-13.9-13.8-17.1-7.2-2.4-9.9-6.6-11.8-12.8C37,4.8,29.9,0,22.7,0h-.2C10.8,0,0,12.9,0,29.9s10.3,35.1,35.1,35.1h0c18.6,0,29.9-11.9,29.9-22.6"/>
    <polygon points="79.4 12.3 89.3 28.1 91.3 28.1 91.3 9.9 89.6 9.9 89.6 25.3 79.9 9.9 77.7 9.9 77.7 28.1 79.4 28.1 79.4 12.3"/>
    <path class="st1" d="M102.6,9.9l6.6,18.2h-1.8l-2-5.5h-7.8l-1.9,5.5h-1.7v-.3c0,0,6.5-18,6.5-18h2.1ZM104.8,21.1l-3.3-9.4-3.3,9.4h6.7Z"/>
    <polygon points="114 28.1 115.8 28.1 115.8 11.4 121.3 11.4 121.3 9.9 108.5 9.9 108.5 11.4 114 11.4 114 28.1"/>
    <rect x="124.1" y="9.9" width="1.8" height="18.2"/>
    <path class="st1" d="M147,19c0,5.3-3.8,9.2-8.8,9.2s-8.9-4-8.9-9.2v-.2c0-5.3,3.8-9.2,8.9-9.2s8.9,3.9,8.9,9.2v.2ZM145.2,18.8c0-4.4-2.9-7.6-7-7.6s-7.1,3.2-7.1,7.7v.2c0,4.4,3.1,7.7,7.1,7.7s7-2.3,7-7.7v-.2Z"/>
    <polygon points="151.9 12.3 161.8 28.1 163.8 28.1 163.8 9.9 162.1 9.9 162.1 25.3 152.4 9.9 150.2 9.9 150.2 28.1 151.9 28.1 151.9 12.3"/>
    <path class="st1" d="M168.1,28.1h-1.7v-.3c0,0,6.5-18,6.5-18h2.1l6.6,18.2h-1.8l-2-5.5h-7.8l-2,5.5ZM170.7,21.1h6.7l-3.3-9.4-3.3,9.4Z"/>
    <polygon points="186.1 9.9 184.3 9.9 184.3 28.1 194.7 28.1 194.7 26.6 186.1 26.6 186.1 9.9"/>
    <polygon class="st2" points="207.3 18.7 216.2 9.7 213.8 9.7 205.6 18.1 205.6 9.8 203.6 9.8 203.6 28.2 205.6 28.2 205.6 19.6 214.2 28.2 216.6 28.2 207.3 18.7"/>
    <rect class="st2" x="218.7" y="9.8" width="2" height="18.4"/>
    <path class="st0" d="M238.9,18.8v.2c0,5.6-3.5,9.1-9.2,9.1h-4.9V9.8h4.9c5.7,0,9.2,3.5,9.2,9.1M236.9,18.8c0-4.7-2.7-7.3-7.3-7.3h-2.8v15h2.9c4.6,0,7.3-2.7,7.3-7.4v-.2Z"/>
    <polygon class="st2" points="253.8 25 244.3 9.9 244.2 9.8 241.9 9.8 241.9 28.2 243.8 28.2 243.8 12.6 253.6 28.2 255.6 28.2 255.6 9.8 253.8 9.8 253.8 25"/>
    <polygon class="st2" points="261.6 19.6 268.8 19.6 268.8 17.9 261.6 17.9 261.6 11.5 270.5 11.5 270.5 9.8 259.7 9.8 259.7 28.2 270.9 28.2 270.9 26.5 261.6 26.5 261.6 19.6"/>
    <polygon class="st2" points="279.1 18.2 273.9 9.8 271.7 9.8 278.1 20 278.1 28.2 280 28.2 280 20.1 286 9.8 283.9 9.8 279.1 18.2"/>
    <polygon points="77.7 58 79.5 58 79.5 49.6 86.4 49.6 86.4 48 79.5 48 79.5 41.3 88.2 41.3 88.2 39.8 77.7 39.8 77.7 58"/>
    <path class="st1" d="M106.8,48.8v.2c0,5.3-3.8,9.2-8.8,9.2s-8.9-4-8.9-9.2v-.2c0-5.3,3.8-9.2,8.9-9.2s8.9,3.9,8.9,9.2M104.9,48.7c0-4.4-2.9-7.6-7-7.6s-7.1,3.2-7.1,7.7v.2c0,4.4,3.1,7.7,7.1,7.7s7-3.2,7-7.7v-.2Z"/>
    <path d="M120.9,51c0,4-1.5,5.7-4.9,5.7s-4.9-1.7-4.9-5.3v-11.5h-1.8v11.6c0,4.3,2.4,6.7,6.6,6.7s6.7-2.5,6.7-7v-11.4h-1.8v11.2Z"/>
    <polygon points="139.1 55.3 129.4 39.8 127.2 39.8 127.2 58 129 58 129 42.2 138.9 58 140.8 58 140.8 39.8 139.1 39.8 139.1 55.3"/>
    <path class="st1" d="M158.9,48.7v.2c0,5.6-3.5,9.1-9.1,9.1h-4.8v-18.2h4.8c5.6,0,9.1,3.4,9.1,9M157.1,49v-.2c0-4.7-2.7-7.4-7.4-7.4h-2.9v15.2h2.9c4.7,0,7.4-2.8,7.3-7.5"/>
    <path class="st1" d="M168.3,39.8l6.5,18.2h-1.8l-2-5.5h-7.8l-1.9,5.5h-1.7v-.3c0,0,6.5-18,6.5-18h2.1ZM170.5,51.1l-3.3-9.4-3.3,9.4h6.7Z"/>
    <polygon points="174.2 41.3 179.7 41.3 179.7 58 181.5 58 181.5 41.3 187 41.3 187 39.8 174.2 39.8 174.2 41.3"/>
    <rect x="189.8" y="39.8" width="1.8" height="18.2"/>
    <path class="st1" d="M212.7,48.8v.2c0,5.3-3.8,9.2-8.8,9.2s-8.9-4-8.9-9.2v-.2c0-5.3,3.8-9.2,8.9-9.2s8.9,3.9,8.9,9.2M210.8,48.7c0-4.4-2.9-7.6-7-7.6s-7.1,3.2-7.1,7.7v.2c0,4.4,3.1,7.7,7.1,7.7s7-3.2,7-7.7v-.2Z"/>
    <polygon points="227.8 55.3 218.1 39.8 215.9 39.8 215.9 58 217.6 58 217.6 42.2 227.5 58 229.5 58 229.5 39.8 227.8 39.8 227.8 55.3"/>
    <path class="st1" d="M238.4,55c0,1.5-1.2,2.7-2.7,2.7s-2.7-1.1-2.7-2.7,1.2-2.7,2.7-2.7,2.7,1.2,2.7,2.7M238,55c0-1.4-1-2.3-2.3-2.3s-2.3,1-2.3,2.4,1,2.3,2.3,2.3,2.3-1,2.3-2.4"/>
    <path class="st1" d="M236.1,55.1l.8,1.2h-.5l-.7-1.1h-.4v1.1h-.5v-2.8h.9c.6,0,1,.3,1,.8s-.2.6-.6.7M235.2,54.9h.5c.4,0,.6-.2.6-.5s-.2-.5-.6-.5h-.5v.9Z"/>
  </g>
  <rect x="296.8" y="9.8" width=".9" height="48.2"/>
</svg>