<?xml version="1.0" encoding="UTF-8"?>
<svg id="Layer_1" xmlns="http://www.w3.org/2000/svg" width="178" height="60" version="1.1" viewBox="0 0 178 60">
  <!-- Generator: Adobe Illustrator 29.4.0, SVG Export Plug-In . SVG Version: 2.1.0 Build 152)  -->
  <defs>
    <style>
      .st0, .st1 {
        fill: #ee4a17;
      }

      .st2 {
        fill: #4545dd;
      }

      .st2, .st1 {
        fill-rule: evenodd;
      }
    </style>
  </defs>
  <g id="Logo">
    <path id="Union" class="st1" d="M67.7,19.4h7.2v2.7h-6.6c-2.1,0-3.7,1.7-3.7,3.7v2.8h8.5v2.6h-8.5v9.1h-3.1v-14.6c0-3.5,2.8-6.3,6.3-6.3ZM76.5,19.4h3v20.8h-3v-20.8ZM86.4,31.7c-2.8.3-5,1.5-5,4.5s2.3,4.3,5.2,4.3,5.3-2.2,5.6-2.8h.1v2.5h2.8v-10.4c0-3.8-2-5.4-6.4-5.4s-6.4,1.5-6.4,4.6v.6h2.9v-.4c0-2,1.3-2.6,3.5-2.6s3.5.7,3.5,3.1v.4c0,.5-.5.7-1.9.9l-3.8.4ZM92.2,32.8v1.7c0,1.7-1.5,3.7-4.8,3.7s-2.9-.7-2.9-2.1.7-1.9,2.7-2.1l2.9-.4c1.5-.2,1.9-.4,2.1-.7ZM97.8,24.8h3v3.6h0c.4-1.8,1.9-3.8,4.7-3.8s.8,0,1.2.1v2.5c-.4,0-.7,0-1.1,0-2.9,0-4.9,1.9-4.9,5.3v7.7h-3v-15.5ZM114.7,24.5c-4,0-7.4,2.4-7.4,8.1s3.3,8,7.5,8,5.8-1.4,6.7-4.9h-2.7c-.7,1.8-2.1,2.5-4,2.5-2.8,0-4.4-1.5-4.7-4.7h11.5c0-.3,0-.6,0-1.2,0-5.4-3.1-7.8-7.1-7.8ZM114.7,26.8c2.7,0,4.2,1.7,4.2,4.4h-8.7c.3-2.9,2-4.4,4.4-4.4Z"/>
    <path id="Union_2" class="st2" d="M137.5,19.4h-7.1c-3.5,0-6.3,2.8-6.3,6.3v14.5h3.1v-9.1h8.5v-2.6h-8.5v-2.8c0-2.1,1.7-3.7,3.7-3.7h6.6v-2.7ZM141.2,24.8h-3v15.5h3v-7.7c0-3.5,2-5.3,4.9-5.3s.7,0,1.1,0v-2.5c-.4-.1-.8-.1-1.2-.1-2.8,0-4.3,1.9-4.7,3.8h0v-3.6ZM147.6,32.5c0-5.7,3.4-8.1,7.4-8.1s7.1,2.4,7.1,7.8,0,.8,0,1.2h-11.5c.2,3.2,1.9,4.7,4.7,4.7s3.4-.7,4-2.5h2.7c-.9,3.5-3.6,4.9-6.7,4.9s-7.5-2.4-7.5-8ZM159.2,31.2c0-2.7-1.6-4.4-4.2-4.4s-4.2,1.4-4.4,4.4h8.7ZM170.7,24.5c-4,0-7.4,2.4-7.4,8.1s3.3,8,7.5,8,5.8-1.4,6.7-4.9h-2.7c-.7,1.8-2.1,2.5-4,2.5-2.8,0-4.4-1.5-4.7-4.7h11.5c0-.3,0-.6,0-1.2,0-5.4-3.1-7.8-7.1-7.8ZM170.7,26.8c2.7,0,4.2,1.7,4.2,4.4h-8.7c.3-2.9,2-4.4,4.4-4.4Z"/>
    <path id="Vector" class="st0" d="M45,4.4h23.8l3.9-4.4h-27.6c-2.2,0-4.6,1.6-5.8,3.7l-6.7,12.9h-5.6l-8.3,21.7C15.5,47,8.7,52.3,0,55.5v4.5s7.5,0,7.5,0c5.4,0,10.6-2.1,14.5-5.8l5.6-5.3c2.7-2.6,5.9-4.6,9.4-6l6.9-2.7v-5.8l-.2-.2c-1.4-1.8-2.4-3.8-3.1-5.9-.4-1.4-.3-2.9.4-4.2h10.4l3.8-4.3h-12l.5-1c.3-.7,1.1-1.2,1.8-1.2h11.7l3.9-4.4h-15.5c-1.9,0-4,1.2-5.2,2.9-.2.3-.4.6-.5.9l-6.7,13.1c-.7,1.3-2.1,2.2-3.6,2.2l8.9-17.2c1.3-2.5,3.9-4.1,6.8-4.1h17.9l3.8-4.3h-24.1l.5-1c.3-.7,1.1-1.2,1.8-1.2Z"/>
  </g>
</svg>