<svg width="92" height="25" viewBox="0 0 92 25" fill="none" xmlns="http://www.w3.org/2000/svg">
<path d="M14.713 11.8001C14.6887 9.10082 16.9238 7.78759 17.026 7.72645C15.7602 5.88139 13.7982 5.62929 13.1087 5.60919C11.4609 5.43583 9.86248 6.59495 9.02306 6.59495C8.16689 6.59495 6.87425 5.62594 5.48108 5.65442C3.68831 5.68206 2.01115 6.71975 1.09131 8.33114C-0.807015 11.6167 0.608771 16.445 2.42751 19.1008C3.3373 20.4023 4.40039 21.8538 5.79189 21.8027C7.15322 21.7474 7.66173 20.9358 9.30454 20.9358C10.9323 20.9358 11.4098 21.8027 12.8289 21.77C14.2899 21.7474 15.2098 20.4635 16.0877 19.1511C17.1391 17.6611 17.5613 16.1921 17.5781 16.1167C17.5446 16.105 14.7415 15.0347 14.713 11.8001ZM12.0322 3.86212C12.7644 2.94671 13.2654 1.70132 13.1263 0.4375C12.0666 0.484401 10.7413 1.17033 9.97809 2.06564C9.30287 2.85459 8.69969 4.14772 8.85551 5.3638C10.0459 5.45258 11.2682 4.7633 12.0322 3.86212Z" fill="white"/>
<path d="M34.4308 21.6159H32.5283L31.4862 18.342H27.8638L26.871 21.6159H25.0188L28.6085 10.4702H30.8252L34.4308 21.6159ZM31.172 16.9685L30.2296 14.0581C30.1299 13.7608 29.9422 13.0606 29.6674 11.9584H29.6339C29.5233 12.4325 29.3466 13.1326 29.1045 14.0581L28.1779 16.9685H31.172ZM43.6443 17.4986C43.6443 18.8655 43.2732 19.9459 42.5301 20.739C41.865 21.445 41.0381 21.7976 40.0521 21.7976C38.9873 21.7976 38.2216 21.4182 37.7567 20.6578V24.8747H35.9706V16.2206C35.9706 15.3621 35.948 14.4819 35.9044 13.579H37.4752L37.5749 14.8529H37.6084C38.204 13.8931 39.108 13.4132 40.321 13.4132C41.2693 13.4132 42.061 13.7876 42.6943 14.5372C43.3268 15.2884 43.6443 16.275 43.6443 17.4986ZM41.8248 17.564C41.8248 16.7817 41.6488 16.1368 41.2953 15.6285C40.9091 15.1 40.3905 14.8353 39.7405 14.8353C39.2998 14.8353 38.8994 14.9827 38.5416 15.2733C38.1831 15.5665 37.9485 15.9492 37.8388 16.4233C37.7898 16.6005 37.7619 16.783 37.7558 16.9668V18.3077C37.7558 18.8914 37.9351 19.3847 38.2937 19.7884C38.6522 20.1904 39.118 20.3923 39.691 20.3923C40.3637 20.3923 40.8873 20.1318 41.2618 19.6151C41.6371 19.0966 41.8248 18.4132 41.8248 17.564ZM52.8905 17.4986C52.8905 18.8655 52.5194 19.9459 51.7763 20.739C51.1103 21.445 50.2843 21.7976 49.2974 21.7976C48.2327 21.7976 47.467 21.4182 47.002 20.6578V24.8747H45.2159V16.2206C45.2159 15.3621 45.1933 14.4819 45.1498 13.579H46.7205L46.8202 14.8529H46.8537C47.4485 13.8931 48.3525 13.4132 49.5663 13.4132C50.5138 13.4132 51.3055 13.7876 51.9405 14.5372C52.5722 15.2884 52.8905 16.275 52.8905 17.4986ZM51.0701 17.564C51.0701 16.7817 50.8933 16.1368 50.5398 15.6285C50.1536 15.1 49.6367 14.8353 48.9866 14.8353C48.546 14.8353 48.1455 14.9827 47.7861 15.2733C47.4276 15.5665 47.1939 15.9492 47.0841 16.4233C47.0297 16.6444 47.0003 16.8244 47.0003 16.9668V18.3077C47.0003 18.8914 47.1804 19.3847 47.5373 19.7884C47.8959 20.1896 48.3617 20.3923 48.9364 20.3923C49.6099 20.3923 50.1335 20.1318 50.5071 19.6151C50.8824 19.0966 51.0701 18.4132 51.0701 17.564ZM63.2283 18.4894C63.2283 19.4383 62.8965 20.2097 62.2372 20.8052C61.5117 21.4551 60.4989 21.7809 59.2004 21.7809C58.0007 21.7809 57.039 21.5497 56.3135 21.0866L56.7265 19.5983C57.5098 20.0623 58.3702 20.2934 59.3068 20.2934C59.9803 20.2934 60.5039 20.141 60.8775 19.8387C61.252 19.5355 61.4413 19.1301 61.4413 18.6243C61.4413 18.1712 61.2847 17.7918 60.9772 17.4827C60.6681 17.1745 60.1571 16.8873 59.4391 16.6234C57.4872 15.8956 56.5104 14.8311 56.5104 13.4308C56.5104 12.5162 56.8555 11.7675 57.5442 11.1821C58.2328 10.5975 59.1459 10.3052 60.2819 10.3052C61.2964 10.3052 62.1417 10.4819 62.8127 10.8345L62.3645 12.2901C61.7329 11.9484 61.02 11.7775 60.2224 11.7775C59.5925 11.7775 59.0982 11.9325 58.7447 12.2407C58.4473 12.5162 58.2965 12.8521 58.2965 13.2507C58.2965 13.6904 58.4682 14.0556 58.81 14.342C59.1066 14.6058 59.6477 14.8931 60.4302 15.2013C61.3902 15.5883 62.0956 16.0388 62.5472 16.5564C63.0021 17.074 63.2283 17.7197 63.2283 18.4894ZM69.1486 14.9191H67.1799V18.8211C67.1799 19.8136 67.5267 20.3085 68.222 20.3085C68.5412 20.3085 68.8059 20.2817 69.0154 20.2256L69.0648 21.5816C68.713 21.713 68.2497 21.7792 67.6758 21.7792C66.9704 21.7792 66.4192 21.564 66.0213 21.1335C65.625 20.703 65.4257 19.9819 65.4257 18.9668V14.9157H64.2528V13.5757H65.4257V12.1042L67.1799 11.5749V13.5757H69.1486V14.9191ZM78.0136 17.5313C78.0136 18.7667 77.6601 19.7809 76.9547 20.574C76.2166 21.3906 75.2348 21.7976 74.0108 21.7976C72.8296 21.7976 71.8905 21.4065 71.1902 20.6251C70.4898 19.842 70.1396 18.8554 70.1396 17.6653C70.1396 16.4199 70.5015 15.3998 71.2228 14.6067C71.9458 13.8127 72.9193 13.4157 74.1432 13.4157C75.3227 13.4157 76.2702 13.8077 76.9873 14.5899C77.6726 15.3487 78.0136 16.3286 78.0136 17.5313ZM76.1622 17.5723C76.1622 16.8362 76.003 16.2047 75.6838 15.6762C75.3093 15.038 74.7732 14.7189 74.0787 14.7189C73.3633 14.7189 72.8145 15.038 72.4409 15.6762C72.1209 16.2047 71.9617 16.8471 71.9617 17.6058C71.9617 18.3429 72.1209 18.976 72.4409 19.5028C72.8271 20.141 73.3658 20.4601 74.0636 20.4601C74.7464 20.4601 75.2817 20.1343 75.6687 19.4869C75.9971 18.9459 76.1622 18.3102 76.1622 17.5723ZM83.8217 15.1494C83.6359 15.1159 83.4474 15.0993 83.2587 15.1C82.6304 15.1 82.1445 15.3362 81.8027 15.8119C81.5061 16.2306 81.357 16.7599 81.357 17.399V21.6159H79.5709V16.11C79.5725 15.2664 79.5552 14.4228 79.519 13.5799H81.0747L81.14 15.1176H81.1895C81.3788 14.5891 81.6754 14.1628 82.0825 13.8437C82.4552 13.5649 82.908 13.4139 83.3735 13.4132C83.5385 13.4132 83.6876 13.4249 83.82 13.4459L83.8217 15.1494ZM91.8095 17.2172C91.8141 17.4887 91.7922 17.7599 91.7442 18.0271H86.386C86.4061 18.8211 86.6658 19.4291 87.1634 19.8479C87.615 20.2214 88.1989 20.409 88.916 20.409C89.7093 20.409 90.4331 20.2834 91.084 20.0296L91.3639 21.2683C90.6032 21.6 89.7051 21.765 88.6688 21.765C87.4223 21.765 86.4438 21.3981 85.7317 20.6661C85.0213 19.9333 84.6653 18.9484 84.6653 17.7147C84.6653 16.5037 84.9962 15.4945 85.6588 14.6896C86.3525 13.8303 87.2899 13.4007 88.4694 13.4007C89.628 13.4007 90.5052 13.8303 91.1008 14.6896C91.5724 15.3705 91.8095 16.2147 91.8095 17.2172ZM90.1064 16.7541C90.119 16.2239 90.0017 15.7675 89.7596 15.3814C89.4504 14.8839 88.9746 14.636 88.3371 14.636C87.7532 14.636 87.2773 14.878 86.9154 15.3638C86.618 15.7499 86.4413 16.2139 86.3868 16.7524L90.1064 16.7541Z" fill="white"/>
<path d="M27.3487 6.52963C26.8519 6.52963 26.4221 6.50534 26.0644 6.4643V1.07569C26.5647 0.998425 27.0703 0.960342 27.5765 0.961787C29.6248 0.961787 30.5681 1.96933 30.5681 3.6117C30.5681 5.50618 29.4539 6.52963 27.3487 6.52963ZM27.6486 1.65274C27.3721 1.65274 27.1367 1.66949 26.9415 1.70969V5.80601C27.0471 5.82276 27.2498 5.8303 27.5346 5.8303C28.8767 5.8303 29.6407 5.06648 29.6407 3.63599C29.6407 2.36045 28.9496 1.65274 27.6486 1.65274ZM33.5078 6.57067C32.3533 6.57067 31.6052 5.70886 31.6052 4.53884C31.6052 3.31941 32.3693 2.45006 33.5731 2.45006C34.7108 2.45006 35.4756 3.27083 35.4756 4.47435C35.4756 5.70886 34.6873 6.57067 33.5078 6.57067ZM33.5413 3.0916C32.9071 3.0916 32.5008 3.68457 32.5008 4.51371C32.5008 5.32695 32.9155 5.91991 33.5329 5.91991C34.1503 5.91991 34.565 5.28591 34.565 4.49696C34.565 3.69294 34.1587 3.0916 33.5413 3.0916ZM42.0586 2.5313L40.8229 6.48105H40.0179L39.506 4.76581C39.3787 4.34625 39.2728 3.92052 39.1885 3.49026H39.1717C39.1072 3.92075 38.9849 4.35207 38.8551 4.76581L38.3105 6.48105H37.4971L36.3343 2.5313H37.2365L37.6839 4.40902C37.7895 4.85626 37.8783 5.27837 37.952 5.67703H37.9687C38.0332 5.34454 38.1388 4.92912 38.2938 4.4174L38.8551 2.53214H39.5705L40.1075 4.3772C40.2373 4.82443 40.3429 5.2633 40.425 5.67787H40.4485C40.5054 5.27167 40.5951 4.84035 40.7165 4.3772L41.1966 2.53214L42.0586 2.5313ZM46.6075 6.48105H45.7296V4.21304C45.7296 3.51455 45.4615 3.16447 44.9329 3.16447C44.4127 3.16447 44.0549 3.6117 44.0549 4.1318V6.48105H43.177V3.66028C43.177 3.31103 43.1686 2.93666 43.1443 2.53046H43.9167L43.9578 3.14018H43.9821C44.2183 2.71807 44.6975 2.45006 45.2345 2.45006C46.0638 2.45006 46.6084 3.08407 46.6084 4.11589L46.6075 6.48105ZM49.0286 6.48105H48.1498V0.718906H49.0286V6.48105ZM52.2296 6.57067C51.0761 6.57067 50.3271 5.70886 50.3271 4.53884C50.3271 3.31941 51.0911 2.45006 52.2941 2.45006C53.4326 2.45006 54.1967 3.27083 54.1967 4.47435C54.1975 5.70886 53.4083 6.57067 52.2296 6.57067ZM52.2623 3.0916C51.6281 3.0916 51.2218 3.68457 51.2218 4.51371C51.2218 5.32695 51.6374 5.91991 52.2531 5.91991C52.8713 5.91991 53.2852 5.28591 53.2852 4.49696C53.286 3.69294 52.8806 3.0916 52.2623 3.0916ZM57.6582 6.48105L57.5945 6.02628H57.5711C57.303 6.39227 56.9118 6.57067 56.4158 6.57067C55.7079 6.57067 55.2053 6.07485 55.2053 5.40819C55.2053 4.43331 56.0506 3.92912 57.5141 3.92912V3.85626C57.5141 3.33616 57.2385 3.07569 56.694 3.07569C56.3044 3.07569 55.9626 3.17368 55.6619 3.36882L55.4834 2.79177C55.8487 2.56397 56.3044 2.45006 56.8397 2.45006C57.8718 2.45006 58.3929 2.99445 58.3929 4.08407V5.53884C58.3929 5.9375 58.4105 6.24655 58.4499 6.48189L57.6582 6.48105ZM57.5376 4.51371C56.5624 4.51371 56.0732 4.7499 56.0732 5.3102C56.0732 5.72477 56.3254 5.92745 56.6755 5.92745C57.1221 5.92745 57.5376 5.58658 57.5376 5.12343V4.51371ZM62.6562 6.48105L62.6151 5.84705H62.5908C62.3387 6.32611 61.9148 6.57067 61.3225 6.57067C60.37 6.57067 59.6646 5.73315 59.6646 4.55475C59.6646 3.31941 60.396 2.44923 61.3945 2.44923C61.9232 2.44923 62.2976 2.62762 62.5087 2.98608H62.5263V0.718906H63.4051V5.41656C63.4051 5.79847 63.4143 6.15609 63.4378 6.48105H62.6562ZM62.5263 4.15693C62.5263 3.60417 62.1602 3.13264 61.6015 3.13264C60.9505 3.13264 60.5526 3.70969 60.5526 4.52209C60.5526 5.31857 60.9656 5.8638 61.5839 5.8638C62.1359 5.8638 62.5263 5.3839 62.5263 4.81522V4.15693ZM68.977 6.57067C67.8234 6.57067 67.0753 5.70886 67.0753 4.53884C67.0753 3.31941 67.8393 2.45006 69.0423 2.45006C70.1808 2.45006 70.9448 3.27083 70.9448 4.47435C70.9456 5.70886 70.1573 6.57067 68.977 6.57067ZM69.0096 3.0916C68.3763 3.0916 67.97 3.68457 67.97 4.51371C67.97 5.32695 68.3847 5.91991 69.0013 5.91991C69.6195 5.91991 70.0333 5.28591 70.0333 4.49696C70.035 3.69294 69.6287 3.0916 69.0096 3.0916ZM75.6663 6.48105H74.7875V4.21304C74.7875 3.51455 74.5195 3.16447 73.9908 3.16447C73.4706 3.16447 73.1137 3.6117 73.1137 4.1318V6.48105H72.2349V3.66028C72.2349 3.31103 72.2266 2.93666 72.2023 2.53046H72.9747L73.0157 3.14018H73.04C73.2754 2.71807 73.7554 2.44923 74.2916 2.44923C75.121 2.44923 75.6663 3.08323 75.6663 4.11505V6.48105ZM81.5733 3.18959H80.6073V5.10752C80.6073 5.59579 80.7766 5.83951 81.1184 5.83951C81.2733 5.83951 81.4032 5.82276 81.5079 5.79847L81.5322 6.46514C81.3621 6.53046 81.1343 6.56313 80.8511 6.56313C80.1591 6.56313 79.7453 6.18122 79.7453 5.18122V3.18959H79.1689V2.5313H79.7453V1.80768L80.6073 1.54721V2.53046H81.5733V3.18959ZM86.2211 6.48105H85.3439V4.22979C85.3439 3.52293 85.0767 3.16531 84.5472 3.16531C84.0923 3.16531 83.6685 3.47435 83.6685 4.09998V6.48105H82.7913V0.718906H83.6685V3.0916H83.686C83.9625 2.66112 84.3629 2.44923 84.874 2.44923C85.71 2.44923 86.2211 3.09914 86.2211 4.1318V6.48105ZM90.9828 4.71723H88.3481C88.3648 5.46514 88.8599 5.88725 89.593 5.88725C89.9825 5.88725 90.3411 5.82192 90.6577 5.70048L90.7943 6.3102C90.4207 6.47268 89.9808 6.55392 89.469 6.55392C88.2333 6.55392 87.502 5.77335 87.502 4.56313C87.502 3.35207 88.2509 2.44169 89.3701 2.44169C90.3796 2.44169 91.0129 3.18959 91.0129 4.31941C91.0186 4.45274 91.0085 4.58628 90.9828 4.71723ZM90.1777 4.0916C90.1777 3.48189 89.8703 3.0514 89.309 3.0514C88.8047 3.0514 88.4059 3.49026 88.3489 4.0916H90.1777Z" fill="white"/>
</svg>
