<svg width="124" height="49" viewBox="0 0 124 49" fill="none" xmlns="http://www.w3.org/2000/svg">
<rect x="0.189819" width="123.62" height="48.4372" rx="12" fill="#131313"/>
<path d="M30.713 23.3626C30.6887 20.6633 32.9238 19.3501 33.026 19.2889C31.7602 17.4439 29.7982 17.1918 29.1087 17.1717C27.4609 16.9983 25.8625 18.1575 25.0231 18.1575C24.1669 18.1575 22.8742 17.1884 21.4811 17.2169C19.6883 17.2446 18.0112 18.2822 17.0913 19.8936C15.193 23.1792 16.6088 28.0075 18.4275 30.6633C19.3373 31.9648 20.4004 33.4163 21.7919 33.3652C23.1532 33.3099 23.6617 32.4983 25.3045 32.4983C26.9323 32.4983 27.4098 33.3652 28.8289 33.3325C30.2899 33.3099 31.2098 32.026 32.0877 30.7136C33.1391 29.2236 33.5613 27.7546 33.5781 27.6792C33.5446 27.6675 30.7415 26.5972 30.713 23.3626ZM28.0322 15.4246C28.7644 14.5092 29.2654 13.2638 29.1263 12C28.0666 12.0469 26.7413 12.7328 25.9781 13.6281C25.3029 14.4171 24.6997 15.7102 24.8555 16.9263C26.0459 17.0151 27.2682 16.3258 28.0322 15.4246Z" fill="white"/>
<path d="M50.4308 33.1784H48.5283L47.4862 29.9045H43.8638L42.871 33.1784H41.0188L44.6085 22.0327H46.8252L50.4308 33.1784ZM47.172 28.531L46.2296 25.6206C46.1299 25.3233 45.9422 24.6231 45.6674 23.5209H45.6339C45.5233 23.995 45.3466 24.6951 45.1045 25.6206L44.1779 28.531H47.172ZM59.6443 29.0611C59.6443 30.428 59.2732 31.5084 58.5301 32.3015C57.865 33.0075 57.0381 33.3601 56.0521 33.3601C54.9873 33.3601 54.2216 32.9807 53.7567 32.2203V36.4372H51.9706V27.7831C51.9706 26.9246 51.948 26.0444 51.9044 25.1415H53.4752L53.5749 26.4154H53.6084C54.204 25.4556 55.108 24.9757 56.321 24.9757C57.2693 24.9757 58.061 25.3501 58.6943 26.0997C59.3268 26.8509 59.6443 27.8375 59.6443 29.0611ZM57.8248 29.1265C57.8248 28.3442 57.6488 27.6993 57.2953 27.191C56.9091 26.6625 56.3905 26.3978 55.7405 26.3978C55.2998 26.3978 54.8994 26.5452 54.5416 26.8358C54.1831 27.129 53.9485 27.5117 53.8388 27.9858C53.7898 28.163 53.7619 28.3455 53.7558 28.5293V29.8702C53.7558 30.4539 53.9351 30.9472 54.2937 31.3509C54.6522 31.7529 55.118 31.9548 55.691 31.9548C56.3637 31.9548 56.8873 31.6943 57.2618 31.1776C57.6371 30.6591 57.8248 29.9757 57.8248 29.1265ZM68.8905 29.0611C68.8905 30.428 68.5194 31.5084 67.7763 32.3015C67.1103 33.0075 66.2843 33.3601 65.2974 33.3601C64.2327 33.3601 63.467 32.9807 63.002 32.2203V36.4372H61.2159V27.7831C61.2159 26.9246 61.1933 26.0444 61.1498 25.1415H62.7205L62.8202 26.4154H62.8537C63.4485 25.4556 64.3525 24.9757 65.5663 24.9757C66.5138 24.9757 67.3055 25.3501 67.9405 26.0997C68.5722 26.8509 68.8905 27.8375 68.8905 29.0611ZM67.0701 29.1265C67.0701 28.3442 66.8933 27.6993 66.5398 27.191C66.1536 26.6625 65.6367 26.3978 64.9866 26.3978C64.546 26.3978 64.1455 26.5452 63.7861 26.8358C63.4276 27.129 63.1939 27.5117 63.0841 27.9858C63.0297 28.2069 63.0003 28.3869 63.0003 28.5293V29.8702C63.0003 30.4539 63.1804 30.9472 63.5373 31.3509C63.8959 31.7521 64.3617 31.9548 64.9364 31.9548C65.6099 31.9548 66.1335 31.6943 66.5071 31.1776C66.8824 30.6591 67.0701 29.9757 67.0701 29.1265ZM79.2283 30.0519C79.2283 31.0008 78.8965 31.7722 78.2372 32.3677C77.5117 33.0176 76.4989 33.3434 75.2004 33.3434C74.0007 33.3434 73.039 33.1122 72.3135 32.6491L72.7265 31.1608C73.5098 31.6248 74.3702 31.8559 75.3068 31.8559C75.9803 31.8559 76.5039 31.7035 76.8775 31.4012C77.252 31.098 77.4413 30.6926 77.4413 30.1868C77.4413 29.7337 77.2847 29.3543 76.9772 29.0452C76.6681 28.737 76.1571 28.4498 75.4391 28.1859C73.4872 27.4581 72.5104 26.3936 72.5104 24.9933C72.5104 24.0787 72.8555 23.33 73.5442 22.7446C74.2328 22.16 75.1459 21.8677 76.2819 21.8677C77.2964 21.8677 78.1417 22.0444 78.8127 22.397L78.3645 23.8526C77.7329 23.5109 77.02 23.34 76.2224 23.34C75.5925 23.34 75.0982 23.495 74.7447 23.8032C74.4473 24.0787 74.2965 24.4146 74.2965 24.8132C74.2965 25.2529 74.4682 25.6181 74.81 25.9045C75.1066 26.1683 75.6477 26.4556 76.4302 26.7638C77.3902 27.1508 78.0956 27.6013 78.5472 28.1189C79.0021 28.6365 79.2283 29.2822 79.2283 30.0519ZM85.1486 26.4816H83.1799V30.3836C83.1799 31.3761 83.5267 31.871 84.222 31.871C84.5412 31.871 84.8059 31.8442 85.0154 31.7881L85.0648 33.1441C84.713 33.2755 84.2497 33.3417 83.6758 33.3417C82.9704 33.3417 82.4192 33.1265 82.0213 32.696C81.625 32.2655 81.4257 31.5444 81.4257 30.5293V26.4782H80.2528V25.1382H81.4257V23.6667L83.1799 23.1374V25.1382H85.1486V26.4816ZM94.0136 29.0938C94.0136 30.3292 93.6601 31.3434 92.9547 32.1365C92.2166 32.9531 91.2348 33.3601 90.0108 33.3601C88.8296 33.3601 87.8905 32.969 87.1902 32.1876C86.4898 31.4045 86.1396 30.4179 86.1396 29.2278C86.1396 27.9824 86.5015 26.9623 87.2228 26.1692C87.9458 25.3752 88.9193 24.9782 90.1432 24.9782C91.3227 24.9782 92.2702 25.3702 92.9873 26.1524C93.6726 26.9112 94.0136 27.8911 94.0136 29.0938ZM92.1622 29.1348C92.1622 28.3987 92.003 27.7672 91.6838 27.2387C91.3093 26.6005 90.7732 26.2814 90.0787 26.2814C89.3633 26.2814 88.8145 26.6005 88.4409 27.2387C88.1209 27.7672 87.9617 28.4096 87.9617 29.1683C87.9617 29.9054 88.1209 30.5385 88.4409 31.0653C88.8271 31.7035 89.3658 32.0226 90.0636 32.0226C90.7464 32.0226 91.2817 31.6968 91.6687 31.0494C91.9971 30.5084 92.1622 29.8727 92.1622 29.1348ZM99.8217 26.7119C99.6359 26.6784 99.4474 26.6618 99.2587 26.6625C98.6304 26.6625 98.1445 26.8987 97.8027 27.3744C97.5061 27.7931 97.357 28.3224 97.357 28.9615V33.1784H95.5709V27.6725C95.5725 26.8289 95.5552 25.9853 95.519 25.1424H97.0747L97.14 26.6801H97.1895C97.3788 26.1516 97.6754 25.7253 98.0825 25.4062C98.4552 25.1274 98.908 24.9764 99.3735 24.9757C99.5385 24.9757 99.6876 24.9874 99.82 25.0084L99.8217 26.7119ZM107.81 28.7797C107.814 29.0512 107.792 29.3224 107.744 29.5896H102.386C102.406 30.3836 102.666 30.9916 103.163 31.4104C103.615 31.7839 104.199 31.9715 104.916 31.9715C105.709 31.9715 106.433 31.8459 107.084 31.5921L107.364 32.8308C106.603 33.1625 105.705 33.3275 104.669 33.3275C103.422 33.3275 102.444 32.9606 101.732 32.2286C101.021 31.4958 100.665 30.5109 100.665 29.2772C100.665 28.0662 100.996 27.057 101.659 26.2521C102.352 25.3928 103.29 24.9632 104.469 24.9632C105.628 24.9632 106.505 25.3928 107.101 26.2521C107.572 26.933 107.81 27.7772 107.81 28.7797ZM106.106 28.3166C106.119 27.7864 106.002 27.33 105.76 26.9439C105.45 26.4464 104.975 26.1985 104.337 26.1985C103.753 26.1985 103.277 26.4405 102.915 26.9263C102.618 27.3124 102.441 27.7764 102.387 28.3149L106.106 28.3166Z" fill="white"/>
<path d="M43.3487 18.0921C42.8519 18.0921 42.4221 18.0678 42.0644 18.0268V12.6382C42.5647 12.5609 43.0703 12.5228 43.5765 12.5243C45.6248 12.5243 46.5681 13.5318 46.5681 15.1742C46.5681 17.0687 45.4539 18.0921 43.3487 18.0921ZM43.6486 13.2152C43.3721 13.2152 43.1367 13.232 42.9415 13.2722V17.3685C43.0471 17.3853 43.2498 17.3928 43.5346 17.3928C44.8767 17.3928 45.6407 16.629 45.6407 15.1985C45.6407 13.9229 44.9496 13.2152 43.6486 13.2152ZM49.5078 18.1332C48.3533 18.1332 47.6052 17.2714 47.6052 16.1013C47.6052 14.8819 48.3693 14.0126 49.5731 14.0126C50.7108 14.0126 51.4756 14.8333 51.4756 16.0369C51.4756 17.2714 50.6873 18.1332 49.5078 18.1332ZM49.5413 14.6541C48.9071 14.6541 48.5008 15.2471 48.5008 16.0762C48.5008 16.8894 48.9155 17.4824 49.5329 17.4824C50.1503 17.4824 50.565 16.8484 50.565 16.0595C50.565 15.2554 50.1587 14.6541 49.5413 14.6541ZM58.0586 14.0938L56.8229 18.0436H56.0179L55.506 16.3283C55.3787 15.9087 55.2728 15.483 55.1885 15.0528H55.1717C55.1072 15.4832 54.9849 15.9146 54.8551 16.3283L54.3105 18.0436H53.4971L52.3343 14.0938H53.2365L53.6839 15.9715C53.7895 16.4188 53.8783 16.8409 53.952 17.2395H53.9687C54.0332 16.907 54.1388 16.4916 54.2938 15.9799L54.8551 14.0946H55.5705L56.1075 15.9397C56.2373 16.3869 56.3429 16.8258 56.425 17.2404H56.4485C56.5054 16.8342 56.5951 16.4028 56.7165 15.9397L57.1966 14.0946L58.0586 14.0938ZM62.6075 18.0436H61.7296V15.7755C61.7296 15.0771 61.4615 14.727 60.9329 14.727C60.4127 14.727 60.0549 15.1742 60.0549 15.6943V18.0436H59.177V15.2228C59.177 14.8735 59.1686 14.4992 59.1443 14.093H59.9167L59.9578 14.7027H59.9821C60.2183 14.2806 60.6975 14.0126 61.2345 14.0126C62.0638 14.0126 62.6084 14.6466 62.6084 15.6784L62.6075 18.0436ZM65.0286 18.0436H64.1498V12.2814H65.0286V18.0436ZM68.2296 18.1332C67.0761 18.1332 66.3271 17.2714 66.3271 16.1013C66.3271 14.8819 67.0911 14.0126 68.2941 14.0126C69.4326 14.0126 70.1967 14.8333 70.1967 16.0369C70.1975 17.2714 69.4083 18.1332 68.2296 18.1332ZM68.2623 14.6541C67.6281 14.6541 67.2218 15.2471 67.2218 16.0762C67.2218 16.8894 67.6374 17.4824 68.2531 17.4824C68.8713 17.4824 69.2852 16.8484 69.2852 16.0595C69.286 15.2554 68.8806 14.6541 68.2623 14.6541ZM73.6582 18.0436L73.5945 17.5888H73.5711C73.303 17.9548 72.9118 18.1332 72.4158 18.1332C71.7079 18.1332 71.2053 17.6374 71.2053 16.9707C71.2053 15.9958 72.0506 15.4916 73.5141 15.4916V15.4188C73.5141 14.8987 73.2385 14.6382 72.694 14.6382C72.3044 14.6382 71.9626 14.7362 71.6619 14.9313L71.4834 14.3543C71.8487 14.1265 72.3044 14.0126 72.8397 14.0126C73.8718 14.0126 74.3929 14.557 74.3929 15.6466V17.1013C74.3929 17.5 74.4105 17.809 74.4499 18.0444L73.6582 18.0436ZM73.5376 16.0762C72.5624 16.0762 72.0732 16.3124 72.0732 16.8727C72.0732 17.2873 72.3254 17.49 72.6755 17.49C73.1221 17.49 73.5376 17.1491 73.5376 16.6859V16.0762ZM78.6562 18.0436L78.6151 17.4095H78.5908C78.3387 17.8886 77.9148 18.1332 77.3225 18.1332C76.37 18.1332 75.6646 17.2956 75.6646 16.1173C75.6646 14.8819 76.396 14.0117 77.3945 14.0117C77.9232 14.0117 78.2976 14.1901 78.5087 14.5486H78.5263V12.2814H79.4051V16.9791C79.4051 17.361 79.4143 17.7186 79.4378 18.0436H78.6562ZM78.5263 15.7194C78.5263 15.1667 78.1602 14.6951 77.6015 14.6951C76.9505 14.6951 76.5526 15.2722 76.5526 16.0846C76.5526 16.8811 76.9656 17.4263 77.5839 17.4263C78.1359 17.4263 78.5263 16.9464 78.5263 16.3777V15.7194ZM84.977 18.1332C83.8234 18.1332 83.0753 17.2714 83.0753 16.1013C83.0753 14.8819 83.8393 14.0126 85.0423 14.0126C86.1808 14.0126 86.9448 14.8333 86.9448 16.0369C86.9456 17.2714 86.1573 18.1332 84.977 18.1332ZM85.0096 14.6541C84.3763 14.6541 83.97 15.2471 83.97 16.0762C83.97 16.8894 84.3847 17.4824 85.0013 17.4824C85.6195 17.4824 86.0333 16.8484 86.0333 16.0595C86.035 15.2554 85.6287 14.6541 85.0096 14.6541ZM91.6663 18.0436H90.7875V15.7755C90.7875 15.0771 90.5195 14.727 89.9908 14.727C89.4706 14.727 89.1137 15.1742 89.1137 15.6943V18.0436H88.2349V15.2228C88.2349 14.8735 88.2266 14.4992 88.2023 14.093H88.9747L89.0157 14.7027H89.04C89.2754 14.2806 89.7554 14.0117 90.2916 14.0117C91.121 14.0117 91.6663 14.6457 91.6663 15.6776V18.0436ZM97.5733 14.7521H96.6073V16.67C96.6073 17.1583 96.7766 17.402 97.1184 17.402C97.2733 17.402 97.4032 17.3853 97.5079 17.361L97.5322 18.0276C97.3621 18.093 97.1343 18.1256 96.8511 18.1256C96.1591 18.1256 95.7453 17.7437 95.7453 16.7437V14.7521H95.1689V14.0938H95.7453V13.3702L96.6073 13.1097V14.093H97.5733V14.7521ZM102.221 18.0436H101.344V15.7923C101.344 15.0854 101.077 14.7278 100.547 14.7278C100.092 14.7278 99.6685 15.0369 99.6685 15.6625V18.0436H98.7913V12.2814H99.6685V14.6541H99.686C99.9625 14.2236 100.363 14.0117 100.874 14.0117C101.71 14.0117 102.221 14.6616 102.221 15.6943V18.0436ZM106.983 16.2797H104.348C104.365 17.0276 104.86 17.4497 105.593 17.4497C105.983 17.4497 106.341 17.3844 106.658 17.263L106.794 17.8727C106.421 18.0352 105.981 18.1164 105.469 18.1164C104.233 18.1164 103.502 17.3358 103.502 16.1256C103.502 14.9146 104.251 14.0042 105.37 14.0042C106.38 14.0042 107.013 14.7521 107.013 15.8819C107.019 16.0152 107.008 16.1488 106.983 16.2797ZM106.178 15.6541C106.178 15.0444 105.87 14.6139 105.309 14.6139C104.805 14.6139 104.406 15.0528 104.349 15.6541H106.178Z" fill="white"/>
</svg>
