<svg width="632" height="214" viewBox="0 0 632 214" fill="none" xmlns="http://www.w3.org/2000/svg">
<g clip-path="url(#clip0_34_205)">
<path d="M240.691 69.2554H266.135V78.9197H242.705C235.386 78.9197 229.453 84.8633 229.453 92.195V102.072H259.668V111.205H229.453V143.596H218.427V91.558C218.427 79.2406 228.395 69.2554 240.691 69.2554Z" fill="#EE4A17"/>
<path d="M272.094 69.2554H282.801V143.596H272.094V69.2554Z" fill="#EE4A17"/>
<path d="M289.502 129.153C289.502 118.533 297.242 114.179 307.101 113.01L320.778 111.417C325.867 110.78 327.563 109.824 327.563 108.125V106.638C327.563 97.8236 323.005 95.4871 315.265 95.4871C307.314 95.4871 302.861 97.8236 302.861 104.833V106.107H292.577V103.877C292.577 92.8321 300.316 87.3096 315.477 87.3096C331.062 87.3096 338.271 93.1507 338.271 106.532V143.596H328.2V134.675H327.775C326.715 136.799 321.52 144.658 307.949 144.658C297.666 144.658 289.502 140.092 289.502 129.153ZM327.563 123.099V117.046C326.821 118.214 325.443 118.958 320.036 119.595L309.646 120.976C302.755 121.825 300.21 124.268 300.21 128.622C300.21 133.826 303.921 136.268 310.6 136.268C322.262 136.268 327.563 129.047 327.563 123.099Z" fill="#EE4A17"/>
<path d="M347.696 88.3719H358.404V101.116H358.722C360.312 94.6378 365.507 87.7349 375.579 87.7349C376.958 87.7349 378.442 87.8409 379.714 88.2659V97.2929C378.336 97.0805 377.063 96.9742 375.685 96.9742C365.401 96.9742 358.404 103.665 358.404 115.984V143.597H347.696V88.3719Z" fill="#EE4A17"/>
<path d="M381.442 116.09C381.442 95.8058 393.529 87.3096 407.735 87.3096C421.942 87.3096 432.862 95.9119 432.862 115.24C432.862 117.152 432.755 118.214 432.544 119.383H391.726C392.574 130.958 398.405 136.268 408.265 136.268C415.05 136.268 420.245 133.826 422.578 127.347H432.12C428.833 139.667 419.397 144.658 408.159 144.658C393.316 144.658 381.442 135.95 381.442 116.09ZM422.684 111.311C422.472 101.647 417.064 95.6995 407.629 95.6995C398.829 95.6995 392.786 100.797 391.832 111.311H422.684Z" fill="#EE4A17"/>
<path d="M463.471 69.2554H488.65V78.9197H465.22C457.901 78.9197 451.967 84.8633 451.967 92.195V102.072H482.183V111.205H451.967V143.596H440.941V91.8235C440.941 79.3595 451.028 69.2554 463.471 69.2554Z" fill="#4545DD"/>
<path d="M491.057 88.3719H501.765V101.116H502.083C503.673 94.6378 508.868 87.7349 518.94 87.7349C520.318 87.7349 521.803 87.8409 523.075 88.2659V97.2929C521.697 97.0805 520.424 96.9742 519.046 96.9742C508.762 96.9742 501.765 103.665 501.765 115.984V143.597H491.057V88.3719Z" fill="#4545DD"/>
<path d="M524.804 116.09C524.804 95.8058 536.89 87.3096 551.096 87.3096C565.303 87.3096 576.223 95.9119 576.223 115.24C576.223 117.152 576.117 118.214 575.905 119.383H535.087C535.935 130.958 541.767 136.268 551.626 136.268C558.412 136.268 563.606 133.826 565.939 127.347H575.481C572.194 139.667 562.758 144.658 551.521 144.658C536.678 144.658 524.804 135.95 524.804 116.09ZM566.045 111.311C565.833 101.647 560.426 95.6995 550.991 95.6995C542.191 95.6995 536.148 100.797 535.194 111.311H566.045Z" fill="#4545DD"/>
<path d="M580.581 116.09C580.581 95.8058 592.667 87.3096 606.874 87.3096C621.08 87.3096 632 95.9119 632 115.24C632 117.152 631.894 118.214 631.682 119.383H590.865C591.713 130.958 597.544 136.268 607.404 136.268C614.189 136.268 619.384 133.826 621.716 127.347H631.258C627.972 139.667 618.536 144.658 607.298 144.658C592.455 144.658 580.581 135.95 580.581 116.09ZM621.823 111.311C621.61 101.647 616.203 95.6995 606.768 95.6995C597.968 95.6995 591.925 100.797 590.971 111.311H621.823Z" fill="#4545DD"/>
<path d="M160.028 15.7605H244.532L258.437 0H160.373C152.469 0 143.855 5.60215 139.895 13.3231L116.071 59.4939H96.1843L66.852 136.957C55.2131 167.694 30.8174 186.535 0.000102685 197.835L0 214H26.5129C45.6487 214 64.0502 206.621 77.8995 193.393L97.6441 174.534C107.265 165.345 118.586 158.128 130.971 153.29L155.541 143.691V122.859L154.987 122.139C150.126 115.822 146.476 108.741 144.14 101.251C142.584 96.2586 143.038 90.8536 145.421 86.1996H182.388L195.777 71.0232H153.218L155.132 67.2849C156.357 64.8953 159.203 62.9517 161.477 62.9517H202.898L216.803 47.1912H161.822C155.016 47.1912 147.689 51.3475 143.253 57.4318C142.538 58.4129 141.895 59.4423 141.344 60.5144L117.425 107.135C114.991 111.881 110.112 114.864 104.786 114.864L136.401 53.6504C141.048 44.653 150.317 39.003 160.429 39.003H224.027L237.416 23.8266H151.769L153.683 20.0936C154.908 17.704 157.754 15.7605 160.028 15.7605Z" fill="#EE4A17"/>
</g>
<defs>
<clipPath id="clip0_34_205">
<rect width="632" height="214" fill="white"/>
</clipPath>
</defs>
</svg>
